<svg xmlns="http://www.w3.org/2000/svg" xmlns:xlink="http://www.w3.org/1999/xlink" id="Calque_1" x="0" y="0" version="1.1" viewBox="0 0 40 40" style="enable-background:new 0 0 40 40" xml:space="preserve"><style type="text/css">.st0{fill:#fff}.st1{fill:#002856}.st2{fill:url(#SVGID_1_)}.st3{fill:url(#SVGID_2_)}.st4{fill:url(#SVGID_3_)}.st5{fill:url(#SVGID_4_)}.st6{fill:url(#SVGID_5_)}.st7{fill:url(#SVGID_6_)}.st8{fill:url(#SVGID_7_)}.st9{fill:url(#SVGID_8_)}.st10{fill:url(#SVGID_9_)}.st11{fill:url(#SVGID_10_)}.st12{fill:url(#SVGID_11_)}.st13{fill:url(#SVGID_12_)}.st14{fill:url(#SVGID_13_)}.st15{fill:url(#SVGID_14_)}.st16{fill:url(#SVGID_15_)}.st17{fill:url(#SVGID_16_)}</style><g><path d="M20,40L20,40C9,40,0,31,0,20l0,0C0,9,9,0,20,0l0,0c11,0,20,9,20,20l0,0C40,31,31,40,20,40z" class="st0"/></g><g id="Calque_5"><g><path d="M28.3,24.1c0,0.6-0.1,1.6-1.5,1.6c-0.3,0-0.9,0-1.3-0.3c-0.3-0.3-0.3-0.7-0.3-1.3v-2.1c0-0.2-0.1-0.3-0.4-0.3 v-0.3h1.9v0.3c-0.3,0-0.4,0.1-0.4,0.3v2.2c0,0.5,0,1.1,0.8,1.1c0.9,0,0.9-0.7,0.9-1.2v-2.2c0-0.2,0-0.3-0.3-0.3h-0.1v-0.3h1.3v0.3 h-0.2c-0.3,0-0.3,0.1-0.3,0.3V24.1z" class="st1"/><path d="M34.8,25.6h-2.1v-0.3h0.2c0.3,0,0.4-0.1,0.4-0.3v-3.2h-0.4c-0.2,0-0.3,0.1-0.3,0.2c-0.1,0.1-0.1,0.4-0.1,0.6 h-0.4v-1.1h3.4v1.1h-0.3c0-0.2,0-0.5-0.1-0.6c-0.1-0.1-0.2-0.2-0.3-0.2h-0.4V25c0,0.2,0.1,0.3,0.4,0.3h0.2L34.8,25.6L34.8,25.6z" class="st1"/><g><path d="M32,24.5c-0.1,0.7-0.6,1.3-1.6,1.3c-0.6,0-1.2-0.2-1.5-0.3v-1h0.3c0,0.1,0,0.3,0,0.3s0.1,0.2,0.2,0.3 c0.2,0.2,0.4,0.3,0.9,0.3c0.7,0,0.9-0.3,0.9-0.7c0-0.4-0.3-0.5-1.1-0.8c-0.9-0.2-1.3-0.5-1.3-1.3c0-0.7,0.5-1.3,1.5-1.3 c0.6,0,0.9,0.1,1.3,0.3v0.9h-0.3c0-0.1,0-0.3,0-0.3c0-0.1-0.1-0.3-0.2-0.3c-0.3-0.3-0.6-0.3-0.9-0.3c-0.3,0-0.8,0.2-0.8,0.6 c0,0.3,0.2,0.5,0.9,0.7c0.7,0.2,0.9,0.3,1.2,0.4C32,23.7,32.1,24,32,24.5" class="st1"/><path d="M8.5,24.1c-0.1,0.8-0.7,1.5-2.2,1.5c-0.8,0-1.6-0.3-1.9-0.5v-1.3h0.4c0,0.2,0,0.3,0,0.4s0.1,0.3,0.2,0.4 c0.3,0.3,0.6,0.5,1.3,0.5c0.9,0,1.3-0.5,1.3-1c0-0.6-0.4-0.8-1.5-1c-1-0.3-1.7-0.6-1.7-1.6c0-0.9,0.7-1.7,2.1-1.7 c0.9,0,1.3,0.2,1.6,0.3v1.2H7.8c0-0.1,0-0.3,0-0.4c0-0.2-0.2-0.3-0.3-0.4c-0.3-0.1-0.7-0.2-1.1-0.1c-0.5,0-1,0.3-1,0.8 s0.2,0.7,1.2,0.9c0.9,0.2,1.3,0.3,1.6,0.6C8.5,23.2,8.5,23.6,8.5,24.1" class="st1"/></g><path d="M12.9,21.8c0.3,0,0.3,0.1,0.3,0.3v3.1c0,0.2,0,0.3-0.3,0.3h-0.1v0.2h1.3v-0.3H14c-0.3,0-0.3-0.1-0.3-0.3v-2.6 l1.7,3.1h0.9v-3.5c0-0.2,0-0.3,0.3-0.3h0.3v-0.5c0-0.4,0-0.9,0.6-0.9h0.6v4.4c0,0.3-0.1,0.5-0.5,0.5h-0.2v0.3H20v-0.3h-0.2 c-0.4,0-0.5-0.1-0.5-0.5v-4.4h0.6c0.6,0,0.6,0.4,0.6,0.9v0.4h0.4c0.3,0,0.3,0.1,0.3,0.3v3c0,0.2-0.2,0.3-0.4,0.3v0.3h1.9v-0.3 c-0.3,0-0.4-0.1-0.4-0.3v-3.3h0.5c0.4,0,0.7,0.2,0.7,0.8c0,0.3-0.2,0.8-0.7,0.8h-0.3c0,0,0.8,1.5,0.9,1.8c0.2,0.3,0.4,0.4,0.9,0.4 h0.8v-0.3c-0.1,0-0.3,0-0.4-0.2l-0.9-1.5c0.5-0.1,0.9-0.5,0.9-1c0-1-1-1-1.6-1h-1.9v-1.5h-4.5v1.5h-1v0.3h0.1 c0.3,0,0.3,0.1,0.3,0.3v2.6l-1.7-3.1h-2.7v0.3h0.1c0.3,0,0.3,0.1,0.3,0.3v2.2c0,0.5-0.1,1.2-0.9,1.2c-0.8,0-0.8-0.6-0.8-1.1v-2.2 c0-0.2,0.1-0.3,0.4-0.3v-0.3H8.7v0.3c0.3,0,0.4,0.1,0.4,0.3v2.1c0,0.6,0.1,0.9,0.3,1.2c0.3,0.3,1,0.3,1.3,0.3 c1.5,0,1.5-0.9,1.5-1.8v-2.2c0,0.1,0,0,0.3,0L12.9,21.8L12.9,21.8z" class="st1"/><g><linearGradient id="SVGID_1_" x1="8.069" x2="15.968" y1="22.902" y2="32.316" gradientTransform="matrix(1 0 0 -1 0 40)" gradientUnits="userSpaceOnUse"><stop offset=".343" style="stop-color:#f5a800"/><stop offset=".488" style="stop-color:#e98f07"/><stop offset=".685" style="stop-color:#dc740e"/><stop offset=".861" style="stop-color:#d46413"/><stop offset=".994" style="stop-color:#d15e14"/></linearGradient><path d="M8.4,14.6l-0.1,0.3c-0.1,0.2-0.1,0.6,0,0.8L8.7,18c0,0.2,0.1,0.3,0.2,0.3s0.1-0.2,0-0.5l-0.3-3.1 C8.5,14.5,8.4,14.5,8.4,14.6" class="st2"/><linearGradient id="SVGID_2_" x1="8.331" x2="16.202" y1="22.656" y2="32.036" gradientTransform="matrix(1 0 0 -1 0 40)" gradientUnits="userSpaceOnUse"><stop offset=".343" style="stop-color:#f5a800"/><stop offset=".488" style="stop-color:#e98f07"/><stop offset=".685" style="stop-color:#dc740e"/><stop offset=".861" style="stop-color:#d46413"/><stop offset=".994" style="stop-color:#d15e14"/></linearGradient><path d="M9.3,17.1c0,0.2,0,0.4,0,0.4c-0.1,0-0.1-0.1-0.2-0.3L9,15.9c0-0.2,0-0.6,0.1-0.8s0.2-0.1,0.2,0.1L9.3,17.1z" class="st3"/><linearGradient id="SVGID_3_" x1="7.808" x2="15.65" y1="23.077" y2="32.422" gradientTransform="matrix(1 0 0 -1 0 40)" gradientUnits="userSpaceOnUse"><stop offset=".343" style="stop-color:#f5a800"/><stop offset=".488" style="stop-color:#e98f07"/><stop offset=".685" style="stop-color:#dc740e"/><stop offset=".861" style="stop-color:#d46413"/><stop offset=".994" style="stop-color:#d15e14"/></linearGradient><path d="M9.9,12.4l-0.2,4c0,0.2,0,0.4-0.1,0.4c0,0-0.1-0.1-0.1-0.3l-0.1-3.4c0-0.2,0.1-0.4,0.2-0.6l0.1-0.3 C9.8,12.3,9.9,12.3,9.9,12.4" class="st4"/><linearGradient id="SVGID_4_" x1="8.311" x2="16.134" y1="22.637" y2="31.96" gradientTransform="matrix(1 0 0 -1 0 40)" gradientUnits="userSpaceOnUse"><stop offset=".343" style="stop-color:#f5a800"/><stop offset=".488" style="stop-color:#e98f07"/><stop offset=".685" style="stop-color:#dc740e"/><stop offset=".861" style="stop-color:#d46413"/><stop offset=".994" style="stop-color:#d15e14"/></linearGradient><path d="M10.5,13.3l-0.3,3.1c0,0.3-0.1,0.4-0.1,0.4c-0.1,0-0.1-0.2-0.1-0.3l0.1-2.7C10.2,13.6,10.4,13.3,10.5,13.3 C10.5,13,10.5,13.1,10.5,13.3" class="st5"/><linearGradient id="SVGID_5_" x1="7.949" x2="15.755" y1="22.927" y2="32.228" gradientTransform="matrix(1 0 0 -1 0 40)" gradientUnits="userSpaceOnUse"><stop offset=".343" style="stop-color:#f5a800"/><stop offset=".488" style="stop-color:#e98f07"/><stop offset=".685" style="stop-color:#dc740e"/><stop offset=".861" style="stop-color:#d46413"/><stop offset=".994" style="stop-color:#d15e14"/></linearGradient><path d="M10.6,16.1c-0.1,0-0.1-0.3,0-0.3l0.4-4.3c0-0.2,0.2-0.4,0.3-0.5v-0.1c0.1-0.2,0.2-0.2,0.2,0l-0.7,4.8 C10.7,15.9,10.7,16.1,10.6,16.1" class="st6"/><linearGradient id="SVGID_6_" x1="8.52" x2="16.305" y1="22.436" y2="31.715" gradientTransform="matrix(1 0 0 -1 0 40)" gradientUnits="userSpaceOnUse"><stop offset=".343" style="stop-color:#f5a800"/><stop offset=".488" style="stop-color:#e98f07"/><stop offset=".685" style="stop-color:#dc740e"/><stop offset=".861" style="stop-color:#d46413"/><stop offset=".994" style="stop-color:#d15e14"/></linearGradient><path d="M11.9,11.6c0.1-0.1,0.3-0.1,0.3,0.1L11.2,16c0,0.2-0.1,0.4-0.2,0.3c-0.1,0-0.1-0.3,0-0.4l0.7-3.9 C11.7,12,11.8,11.7,11.9,11.6" class="st7"/><linearGradient id="SVGID_7_" x1="9.043" x2="16.774" y1="21.993" y2="31.206" gradientTransform="matrix(1 0 0 -1 0 40)" gradientUnits="userSpaceOnUse"><stop offset=".343" style="stop-color:#f5a800"/><stop offset=".488" style="stop-color:#e98f07"/><stop offset=".685" style="stop-color:#dc740e"/><stop offset=".861" style="stop-color:#d46413"/><stop offset=".994" style="stop-color:#d15e14"/></linearGradient><path d="M12,16c-0.1,0.2-0.2,0.3-0.3,0.3c-0.1,0,0.1-0.3,0.1-0.3l2.3-5.7c0.1-0.2,0.3-0.3,0.4-0.3s0,0.4-0.1,0.5 C13.1,13.7,12.7,14.6,12,16" class="st8"/><linearGradient id="SVGID_8_" x1="9.295" x2="16.999" y1="21.781" y2="30.963" gradientTransform="matrix(1 0 0 -1 0 40)" gradientUnits="userSpaceOnUse"><stop offset=".343" style="stop-color:#f5a800"/><stop offset=".488" style="stop-color:#e98f07"/><stop offset=".685" style="stop-color:#dc740e"/><stop offset=".861" style="stop-color:#d46413"/><stop offset=".994" style="stop-color:#d15e14"/></linearGradient><path d="M12.5,15.7c0.1,0,0.2-0.1,0.3-0.3l4.3-7.1c0.1-0.1,0.1-0.3,0-0.4c-0.1-0.1-0.3,0.1-0.4,0.3l-4,7.2 C12.6,15.5,12.5,15.7,12.5,15.7" class="st9"/><linearGradient id="SVGID_9_" x1="10.094" x2="17.776" y1="21.105" y2="30.259" gradientTransform="matrix(1 0 0 -1 0 40)" gradientUnits="userSpaceOnUse"><stop offset=".343" style="stop-color:#f5a800"/><stop offset=".488" style="stop-color:#e98f07"/><stop offset=".685" style="stop-color:#dc740e"/><stop offset=".861" style="stop-color:#d46413"/><stop offset=".994" style="stop-color:#d15e14"/></linearGradient><path d="M12.7,16.5c-0.1-0.1,0-0.3,0.2-0.4l4.6-6.6C17.5,9.2,17.8,9,18,9.1c0.2,0.1,0.2,0.3,0,0.4l-5,6.6 C12.9,16.4,12.7,16.5,12.7,16.5" class="st10"/><linearGradient id="SVGID_10_" x1="11.039" x2="18.697" y1="20.311" y2="29.437" gradientTransform="matrix(1 0 0 -1 0 40)" gradientUnits="userSpaceOnUse"><stop offset=".343" style="stop-color:#f5a800"/><stop offset=".488" style="stop-color:#e98f07"/><stop offset=".685" style="stop-color:#dc740e"/><stop offset=".861" style="stop-color:#d46413"/><stop offset=".994" style="stop-color:#d15e14"/></linearGradient><path d="M14,15.7c0,0-0.3,0.3-0.3,0.3c-0.1-0.1,0.1-0.2,0.2-0.3l0.2-0.2l6.4-7.3c0.1-0.1,0.3-0.2,0.3,0l0.2,0.3 c0.1,0.1,0.1,0.3,0,0.4L14,15.7z" class="st11"/><linearGradient id="SVGID_11_" x1="11.805" x2="19.437" y1="19.664" y2="28.76" gradientTransform="matrix(1 0 0 -1 0 40)" gradientUnits="userSpaceOnUse"><stop offset=".343" style="stop-color:#f5a800"/><stop offset=".488" style="stop-color:#e98f07"/><stop offset=".685" style="stop-color:#dc740e"/><stop offset=".861" style="stop-color:#d46413"/><stop offset=".994" style="stop-color:#d15e14"/></linearGradient><path d="M13.5,16.9c-0.1-0.1,0.1-0.2,0.3-0.3l6.8-6.3c0.1-0.1,0.3-0.1,0.4,0c0.2,0.2,0.2,0.3,0.2,0.3 c0,0.2-0.1,0.3-0.2,0.4l-7.1,5.6C13.7,16.9,13.5,17,13.5,16.9" class="st12"/><linearGradient id="SVGID_12_" x1="12.934" x2="20.541" y1="18.714" y2="27.779" gradientTransform="matrix(1 0 0 -1 0 40)" gradientUnits="userSpaceOnUse"><stop offset=".343" style="stop-color:#f5a800"/><stop offset=".488" style="stop-color:#e98f07"/><stop offset=".685" style="stop-color:#dc740e"/><stop offset=".861" style="stop-color:#d46413"/><stop offset=".994" style="stop-color:#d15e14"/></linearGradient><path d="M14.9,16.4l7.9-5.7c0.2-0.1,0.3-0.1,0.3,0.1l0.2,0.6c0,0.2-0.1,0.3-0.3,0.5l-8,4.7 c-0.2,0.1-0.4,0.3-0.4,0.2C14.5,16.6,14.7,16.5,14.9,16.4" class="st13"/><linearGradient id="SVGID_13_" x1="13.326" x2="20.893" y1="18.394" y2="27.413" gradientTransform="matrix(1 0 0 -1 0 40)" gradientUnits="userSpaceOnUse"><stop offset=".343" style="stop-color:#f5a800"/><stop offset=".488" style="stop-color:#e98f07"/><stop offset=".685" style="stop-color:#dc740e"/><stop offset=".861" style="stop-color:#d46413"/><stop offset=".994" style="stop-color:#d15e14"/></linearGradient><path d="M14.1,17.5c0-0.1,0.2-0.2,0.4-0.3l7.1-3.5c0.2-0.1,0.3-0.1,0.3,0.1v0.8c0,0.2-0.2,0.3-0.4,0.4l-7,2.4 C14.3,17.6,14.1,17.6,14.1,17.5" class="st14"/><linearGradient id="SVGID_14_" x1="14.416" x2="21.935" y1="17.483" y2="26.443" gradientTransform="matrix(1 0 0 -1 0 40)" gradientUnits="userSpaceOnUse"><stop offset=".343" style="stop-color:#f5a800"/><stop offset=".488" style="stop-color:#e98f07"/><stop offset=".685" style="stop-color:#dc740e"/><stop offset=".861" style="stop-color:#d46413"/><stop offset=".994" style="stop-color:#d15e14"/></linearGradient><path d="M22.3,16.9l-6.8,0.9c-0.3,0-0.4,0.1-0.5,0c0-0.1,0.2-0.2,0.4-0.3l7.1-2.2c0.3-0.1,0.4,0,0.3,0.2l-0.1,0.8 C22.8,16.6,22.6,16.8,22.3,16.9" class="st15"/><linearGradient id="SVGID_15_" x1="14.554" x2="22.011" y1="17.377" y2="26.264" gradientTransform="matrix(1 0 0 -1 0 40)" gradientUnits="userSpaceOnUse"><stop offset=".343" style="stop-color:#f5a800"/><stop offset=".488" style="stop-color:#e98f07"/><stop offset=".685" style="stop-color:#dc740e"/><stop offset=".861" style="stop-color:#d46413"/><stop offset=".994" style="stop-color:#d15e14"/></linearGradient><path d="M14.6,18.5c0-0.1,0.3-0.2,0.6-0.2l6-0.7c0.3,0,0.5,0.1,0.4,0.3l-0.1,0.3c-0.1,0.2-0.3,0.3-0.6,0.3h-5.8 C14.8,18.6,14.6,18.6,14.6,18.5" class="st16"/><linearGradient id="SVGID_16_" x1="8.424" x2="16.182" y1="22.514" y2="31.761" gradientTransform="matrix(1 0 0 -1 0 40)" gradientUnits="userSpaceOnUse"><stop offset=".343" style="stop-color:#f5a800"/><stop offset=".488" style="stop-color:#e98f07"/><stop offset=".685" style="stop-color:#dc740e"/><stop offset=".861" style="stop-color:#d46413"/><stop offset=".994" style="stop-color:#d15e14"/></linearGradient><path d="M13.7,9.6c0,0-1.7,5.3-1.8,5.7c-0.1,0.3-0.2,0.6-0.3,0.6c-0.1,0,0-0.2,0.1-0.4l1.6-5.9 c0.1-0.3,0.3-0.4,0.4-0.4C13.9,9,13.8,9.4,13.7,9.6" class="st17"/></g></g></g></svg>